<svg xmlns="http://www.w3.org/2000/svg" xmlns:xlink="http://www.w3.org/1999/xlink" width="500" zoomAndPan="magnify" viewBox="0 0 375 374.999991" height="500" preserveAspectRatio="xMidYMid meet" version="1.0"><defs><g/><clipPath id="36d4024ae3"><path d="M 40.828125 11.882812 L 327 11.882812 L 327 144.914062 L 40.828125 144.914062 Z M 40.828125 11.882812 " clip-rule="nonzero"/></clipPath><clipPath id="84c7058095"><path d="M 183.742188 11.882812 L 326.652344 144.914062 L 40.828125 144.914062 Z M 183.742188 11.882812 " clip-rule="nonzero"/></clipPath><clipPath id="d33d2e1140"><path d="M 40.828125 156.191406 L 103.199219 156.191406 L 103.199219 288 L 40.828125 288 Z M 40.828125 156.191406 " clip-rule="nonzero"/></clipPath></defs><g fill="#eeba2b" fill-opacity="1"><g transform="translate(19.247401, 358.756278)"><g><path d="M 21.3125 0 L 21.3125 -182.171875 L 84.171875 -182.171875 L 84.171875 -163 L 84.875 -163 C 101.207031 -179.332031 118.609375 -187.5 137.078125 -187.5 C 150.335938 -187.5 162.765625 -184.773438 174.359375 -179.328125 C 185.960938 -173.890625 194.722656 -165.488281 200.640625 -154.125 C 219.109375 -176.375 239.234375 -187.5 261.015625 -187.5 C 280.429688 -187.5 297.125 -182.050781 311.09375 -171.15625 C 325.0625 -160.269531 332.046875 -143.226562 332.046875 -120.03125 L 332.046875 0 L 269.1875 0 L 269.1875 -102.984375 C 269.1875 -112.691406 266.519531 -120.800781 261.1875 -127.3125 C 255.863281 -133.820312 247.875 -137.078125 237.21875 -137.078125 C 227.988281 -137.078125 220.945312 -134.296875 216.09375 -128.734375 C 211.238281 -123.171875 208.578125 -116.484375 208.109375 -108.671875 L 208.109375 0 L 145.25 0 L 145.25 -102.984375 C 145.25 -112.691406 142.582031 -120.800781 137.25 -127.3125 C 131.925781 -133.820312 123.9375 -137.078125 113.28125 -137.078125 C 103.570312 -137.078125 96.289062 -134.054688 91.4375 -128.015625 C 86.59375 -121.984375 84.171875 -114.820312 84.171875 -106.53125 L 84.171875 0 Z M 21.3125 0 "/></g></g></g><g clip-path="url(#36d4024ae3)"><g clip-path="url(#84c7058095)"><path fill="#eeba2b" d="M 40.828125 11.882812 L 326.640625 11.882812 L 326.640625 144.914062 L 40.828125 144.914062 Z M 40.828125 11.882812 " fill-opacity="1" fill-rule="nonzero"/></g></g><g clip-path="url(#d33d2e1140)"><path fill="#eeba2b" d="M 40.828125 156.191406 L 103.199219 156.191406 L 103.199219 287.996094 L 40.828125 287.996094 Z M 40.828125 156.191406 " fill-opacity="1" fill-rule="nonzero"/></g></svg>